<?xml version="1.0" standalone="no"?>
<!DOCTYPE svg PUBLIC "-//W3C//DTD SVG 20010904//EN"
 "http://www.w3.org/TR/2001/REC-SVG-20010904/DTD/svg10.dtd">
<svg version="1.0" xmlns="http://www.w3.org/2000/svg"
 width="940.000000pt" height="940.000000pt" viewBox="0 0 940.000000 940.000000"
 preserveAspectRatio="xMidYMid meet">
<metadata>
Created by potrace 1.11, written by Peter Selinger 2001-2013
</metadata>
<g transform="translate(0.000000,940.000000) scale(0.100000,-0.100000)"
fill="#000000" stroke="none">
<path d="M0 4700 l0 -4700 4700 0 4700 0 0 4700 0 4700 -4700 0 -4700 0 0
-4700z m4680 3319 c9 -16 8 -25 -3 -42 -12 -18 -10 -30 21 -106 19 -47 37 -88
39 -90 2 -3 46 24 97 60 73 49 96 70 100 92 5 24 10 28 33 25 37 -4 43 -36 11
-63 -18 -15 -33 -50 -57 -140 -18 -66 -37 -135 -43 -154 l-10 -34 -92 8 c-114
10 -148 10 -262 0 l-91 -8 -42 154 c-52 190 -49 181 -60 175 -15 -9 -33 22
-26 44 10 32 59 24 63 -10 2 -19 26 -40 98 -89 52 -34 97 -61 100 -58 3 2 20
43 39 90 30 77 32 87 19 106 -11 16 -12 26 -4 41 14 27 56 26 70 -1z m-834
-416 c12 -18 29 -72 39 -125 10 -51 19 -96 21 -99 2 -4 33 4 69 17 203 74 404
106 665 106 268 0 444 -26 662 -101 l86 -29 11 46 c5 26 13 67 17 92 8 54 37
115 59 124 9 3 29 6 45 6 32 0 46 -25 35 -60 -9 -27 -55 -28 -55 -1 0 26 -17
36 -35 21 -27 -22 -17 -76 30 -166 25 -47 45 -98 45 -112 0 -21 11 -34 46 -57
28 -19 43 -35 40 -45 -3 -8 -12 -33 -20 -55 -32 -84 -14 -144 56 -195 44 -32
152 -70 199 -70 16 0 29 -1 29 -3 0 -2 -18 -47 -40 -101 -121 -297 -147 -665
-68 -981 17 -71 18 -89 8 -155 -56 -368 -252 -702 -482 -822 -44 -22 -76 -44
-71 -48 4 -4 84 -31 177 -60 129 -41 184 -54 234 -54 l66 -1 31 57 c16 31 47
76 68 101 20 24 43 52 51 62 12 17 14 16 24 -15 33 -94 3 -165 -93 -215 -33
-17 -82 -46 -109 -63 -40 -26 -60 -32 -103 -32 -59 0 -197 31 -378 84 -66 20
-125 36 -132 36 -7 0 -104 -61 -216 -135 -113 -74 -207 -135 -210 -135 -3 0
-98 61 -211 135 -113 74 -212 135 -221 135 -8 0 -68 -16 -133 -34 -339 -100
-407 -106 -502 -44 -30 19 -76 47 -102 62 -77 43 -108 123 -77 203 l10 28 45
-50 c58 -64 104 -134 104 -157 0 -23 38 -32 103 -24 50 6 380 106 393 119 3 3
-27 22 -67 42 -116 59 -141 83 -288 279 -56 75 -145 294 -180 444 -29 123 -29
187 -3 302 48 206 49 469 3 685 -19 89 -74 254 -106 314 -18 35 -21 32 65 50
73 15 148 52 184 89 39 42 46 107 17 181 -11 30 -20 55 -18 56 80 53 97 68 97
90 0 13 20 65 45 116 48 99 54 129 29 153 -22 23 -34 20 -34 -9 0 -34 -34 -34
-56 0 -23 35 -4 57 45 53 27 -2 40 -11 57 -35z m-1776 -380 c0 -3 -7 -15 -17
-25 -9 -10 -13 -21 -9 -25 4 -4 11 -1 15 6 10 16 112 41 166 40 l40 0 -31 -16
c-17 -8 -36 -23 -42 -34 -12 -18 -8 -19 67 -19 78 0 79 0 110 -35 l31 -36 67
21 c38 11 86 21 108 23 37 2 40 0 61 -43 34 -71 38 -112 14 -143 -11 -14 -20
-37 -20 -51 0 -28 -17 -35 -26 -12 -4 11 -22 13 -82 9 -73 -4 -79 -7 -110 -41
-44 -48 -39 -71 17 -90 40 -13 50 -13 97 2 46 14 55 22 63 49 9 30 10 31 16
10 6 -18 15 -23 41 -23 27 0 37 -5 46 -26 12 -25 10 -29 -30 -64 -51 -46 -56
-79 -14 -108 48 -33 62 -34 98 -7 53 40 62 27 17 -25 -25 -30 -25 -33 -8 -42
10 -6 35 -26 56 -45 22 -20 45 -33 51 -30 21 8 78 110 105 189 19 55 25 92 24
151 -1 113 21 146 95 147 12 0 24 6 27 14 3 7 19 16 36 18 33 5 38 -1 19 -20
-18 -18 30 -53 67 -49 17 2 41 1 55 -3 24 -6 23 -7 -13 -19 -27 -9 -37 -17
-33 -28 3 -8 6 -23 6 -34 0 -15 7 -19 33 -19 18 0 42 -7 53 -15 18 -14 18 -14
-8 -15 -45 0 -58 -10 -58 -44 0 -27 -8 -36 -65 -75 -96 -64 -115 -101 -125
-245 -6 -98 -11 -121 -33 -158 -63 -103 -124 -149 -257 -193 -61 -20 -109 -39
-107 -41 2 -2 50 10 106 26 l102 31 42 -31 c58 -43 79 -39 150 26 53 50 64 55
91 49 17 -3 47 -7 67 -9 54 -4 67 -16 35 -33 -14 -7 -26 -18 -26 -23 0 -12 50
-50 66 -50 13 0 44 -37 44 -53 0 -4 -9 -3 -19 3 -30 15 -55 12 -68 -10 -11
-16 -9 -23 12 -44 14 -14 25 -30 25 -36 0 -12 -2 -12 -36 0 -23 9 -31 7 -50
-11 -21 -20 -30 -21 -101 -15 -62 6 -85 4 -108 -8 -40 -21 -46 -21 -125 14
-79 34 -170 41 -205 14 -19 -14 -18 -15 19 -8 36 6 37 5 27 -13 -15 -28 -75
-80 -119 -101 -30 -16 -139 -56 -212 -79 -9 -3 4 -12 32 -23 69 -26 103 -54
127 -105 29 -62 26 -110 -10 -196 -41 -98 -46 -125 -24 -149 10 -11 23 -20 30
-20 6 0 43 -20 81 -45 38 -24 76 -45 84 -45 8 0 39 9 68 20 82 31 170 22 193
-21 5 -10 16 -19 24 -19 19 0 45 -39 45 -67 0 -23 0 -23 -20 -3 -24 24 -46 26
-54 4 -10 -25 -7 -44 9 -60 17 -17 20 -61 5 -84 -8 -13 -10 -13 -10 1 0 9 -8
24 -19 33 -18 16 -20 16 -47 -1 -26 -16 -29 -23 -26 -63 l3 -45 -25 36 c-24
35 -27 36 -71 31 -41 -4 -50 -1 -76 24 -26 25 -39 29 -90 30 -66 1 -82 11
-110 66 -21 41 -28 44 -131 52 -119 9 -138 34 -112 149 28 125 28 124 6 129
-11 3 -57 1 -103 -5 -47 -6 -96 -7 -109 -4 -22 6 -70 61 -70 80 0 3 29 39 65
79 36 39 65 75 65 80 0 16 -19 8 -30 -13 -6 -11 -34 -45 -60 -75 -27 -29 -52
-66 -56 -81 -10 -43 -51 -91 -97 -115 -35 -18 -65 -23 -172 -28 -71 -3 -139
-10 -150 -17 -57 -32 -81 -102 -48 -141 13 -16 39 -26 101 -36 140 -24 207
-81 167 -142 -8 -13 -15 -34 -15 -48 0 -13 -9 -34 -21 -47 -15 -18 -19 -19
-15 -6 3 9 1 29 -4 42 -8 22 -13 24 -30 15 -11 -6 -20 -21 -20 -33 0 -13 -7
-32 -15 -43 -14 -18 -14 -18 -15 9 0 28 -3 31 -52 41 -22 5 -29 0 -49 -32
l-22 -37 -8 33 c-3 18 -8 34 -10 35 -2 2 -16 8 -30 14 -19 8 -28 22 -33 47 -8
39 -29 56 -74 56 -55 0 -59 20 -23 125 37 111 37 123 11 207 -25 80 -26 124
-2 137 10 5 50 15 88 22 86 15 150 42 158 66 4 15 4 40 -3 139 -1 7 -30 13
-74 16 -112 7 -147 40 -147 139 0 58 18 96 90 194 72 97 120 179 120 203 0 38
-41 126 -73 160 -43 46 -73 59 -152 72 l-68 11 -56 -35 c-72 -44 -101 -51
-148 -35 -37 12 -82 39 -83 49 0 3 24 5 53 5 63 0 119 32 139 79 12 31 39 61
83 92 l27 21 -44 59 c-56 75 -68 104 -68 160 0 45 -18 92 -49 128 -15 18 -14
19 37 12 70 -9 154 -41 178 -67 16 -18 19 -37 19 -118 0 -79 4 -102 19 -126
l20 -30 12 48 c16 64 37 93 84 117 44 22 81 25 111 9 19 -10 17 -13 -27 -52
-66 -58 -104 -114 -104 -152 0 -18 14 -55 35 -88 19 -31 51 -83 70 -114 50
-81 78 -160 72 -205 -9 -67 -53 -144 -131 -227 -83 -89 -104 -136 -83 -180 16
-33 52 -51 104 -51 38 0 44 3 59 35 31 66 97 111 287 196 88 39 117 57 117 71
0 16 -5 17 -40 12 -22 -4 -40 -3 -40 2 0 5 25 37 55 71 l55 61 -48 30 c-26 17
-63 47 -82 67 -34 35 -35 39 -36 113 0 64 -5 86 -29 132 -33 65 -37 131 -11
204 13 35 15 51 7 59 -18 18 -13 128 9 175 19 43 20 43 44 26 14 -9 31 -14 38
-12 7 3 -4 13 -24 22 -42 20 -50 28 -68 75 -13 32 -12 35 10 53 12 10 31 16
40 13 13 -4 21 5 34 39 20 52 67 96 102 96 13 0 24 -3 24 -7z m5229 -20 c13
-8 33 -37 45 -64 17 -40 26 -49 47 -49 42 0 55 -23 39 -71 -11 -33 -23 -45
-57 -62 -53 -26 -57 -43 -6 -22 35 15 39 15 50 -1 7 -9 18 -41 24 -72 11 -46
10 -62 -3 -98 -14 -40 -14 -47 4 -101 24 -70 20 -116 -18 -187 -23 -43 -27
-62 -25 -118 3 -88 -13 -116 -98 -176 l-69 -48 59 -64 c42 -44 57 -66 49 -74
-7 -7 -19 -7 -41 1 -25 10 -31 9 -36 -3 -8 -22 -2 -26 132 -84 178 -78 249
-128 276 -192 12 -30 14 -30 72 -26 47 4 64 9 78 27 40 49 19 100 -83 208 -80
84 -120 162 -121 232 -1 55 45 161 113 261 23 34 48 77 56 96 14 33 13 39 -6
80 -12 24 -49 68 -82 98 l-60 55 41 11 c35 9 48 8 84 -8 58 -26 79 -53 92
-120 l12 -57 18 29 c24 36 33 90 23 149 -14 94 18 127 153 161 60 15 120 21
92 10 -25 -11 -52 -71 -59 -134 -8 -72 -26 -114 -79 -184 -20 -27 -35 -49 -33
-50 2 -2 20 -13 40 -25 22 -13 48 -42 63 -69 36 -66 66 -85 144 -91 l65 -6
-51 -27 c-68 -37 -106 -36 -177 7 -67 40 -111 44 -195 19 -70 -20 -120 -72
-151 -153 l-23 -63 22 -46 c13 -26 54 -90 92 -143 90 -126 113 -177 104 -236
-4 -28 -17 -56 -35 -76 -27 -30 -33 -32 -109 -35 l-81 -4 0 -84 0 -83 31 -17
c18 -9 72 -24 121 -34 50 -10 95 -23 100 -28 16 -16 12 -57 -12 -146 l-22 -78
33 -104 c37 -119 34 -129 -36 -140 -41 -6 -45 -9 -58 -47 -9 -27 -24 -47 -43
-58 -21 -11 -29 -23 -29 -42 1 -35 -12 -34 -33 3 -14 25 -23 30 -55 30 -34 0
-38 -3 -44 -31 -7 -36 -22 -26 -32 23 -10 47 -44 47 -51 -1 -4 -30 -7 -32 -18
-18 -7 8 -14 27 -16 41 -1 14 -11 41 -21 60 -18 32 -18 36 -2 60 25 37 85 64
173 77 50 8 83 18 95 30 38 38 15 118 -44 151 -13 7 -79 15 -159 18 -131 5
-138 6 -180 35 -30 21 -52 48 -73 91 -16 34 -48 82 -70 107 -22 25 -48 56 -57
68 -13 19 -17 20 -18 8 0 -10 27 -47 60 -83 33 -37 60 -73 60 -81 0 -25 -54
-77 -80 -78 -14 0 -67 3 -117 8 -109 9 -114 4 -89 -72 51 -158 26 -203 -114
-203 -76 0 -91 -8 -124 -64 -27 -47 -46 -56 -115 -56 -35 0 -51 -6 -74 -27
-24 -23 -36 -28 -75 -26 -42 2 -50 -1 -75 -30 l-28 -32 4 46 c4 43 3 46 -27
58 -28 10 -33 9 -53 -14 l-22 -25 -7 37 c-5 29 -3 40 12 52 12 10 18 26 16 41
-6 40 -19 46 -52 22 -16 -13 -30 -18 -30 -13 0 49 87 126 154 136 28 4 59 0
100 -14 75 -26 91 -26 129 1 17 12 59 37 92 54 76 39 78 54 30 175 -30 74 -36
101 -32 137 9 79 73 145 172 178 l20 6 -20 9 c-11 4 -69 26 -130 49 -86 32
-119 49 -152 82 -53 52 -55 70 -10 62 l32 -5 -25 15 c-41 25 -110 20 -185 -14
-75 -34 -110 -37 -143 -14 -20 14 -32 14 -87 5 -70 -12 -110 -7 -119 15 -7 17
-48 18 -64 2 -22 -22 -14 24 9 48 18 19 19 25 7 43 -14 23 -47 28 -66 9 -6 -6
-14 -9 -17 -6 -8 8 35 58 50 58 8 0 26 12 39 27 l26 28 -33 16 -32 17 30 6
c17 4 49 11 73 16 52 12 68 5 140 -62 58 -55 67 -56 136 -8 l39 26 95 -28 c53
-16 100 -27 106 -25 5 2 -40 19 -100 38 -102 32 -113 38 -175 97 -85 80 -109
129 -114 236 -8 154 -29 196 -127 263 -61 42 -68 50 -68 79 0 30 -3 34 -37 40
-33 6 -35 8 -18 20 10 8 30 14 45 14 19 0 28 7 37 30 10 26 9 32 -7 40 -10 6
-29 10 -42 10 -19 0 -20 2 -8 10 8 6 31 10 50 8 20 -1 48 7 67 18 30 19 31 21
16 37 -16 16 -16 17 9 17 15 0 33 -6 40 -13 7 -8 31 -16 52 -20 62 -10 69 -23
77 -144 5 -81 13 -126 33 -178 26 -68 84 -165 98 -165 11 0 118 82 118 90 0 4
-9 15 -19 24 -10 10 -21 26 -24 37 -5 19 -4 20 16 5 49 -36 63 -39 100 -21 21
10 40 29 48 47 12 29 11 32 -29 65 -60 49 -55 103 9 103 19 0 30 6 34 20 9 30
25 24 25 -9 0 -24 6 -31 40 -45 48 -19 70 -20 121 -4 51 15 53 46 4 95 -28 28
-40 34 -60 29 -13 -3 -44 -2 -67 3 -38 9 -46 7 -65 -11 l-23 -21 0 35 c0 20
-7 41 -15 48 -21 18 -19 79 5 125 11 22 20 45 20 52 0 23 47 20 147 -9 l72
-21 35 37 c34 37 36 37 103 35 37 -1 69 1 70 4 5 14 -10 37 -28 42 -42 14 -15
21 51 14 45 -5 84 -16 107 -30 35 -22 35 -22 24 -1 -6 11 -16 24 -21 27 -6 3
-10 11 -10 17 0 13 47 2 79 -19z m-2855 -2989 c56 -15 59 -14 81 6 30 28 34
21 50 -103 10 -74 10 -104 2 -109 -16 -10 -25 -2 -46 40 -35 67 -113 127 -180
138 -116 19 -204 -89 -140 -170 26 -34 58 -50 161 -82 106 -34 165 -64 205
-106 115 -120 66 -327 -95 -401 -37 -17 -65 -22 -132 -21 -79 0 -116 9 -211
48 -12 5 -20 -1 -29 -23 -18 -44 -38 -39 -45 12 -10 76 -22 232 -18 240 11 20
32 1 59 -54 36 -76 128 -165 180 -175 123 -23 228 54 209 154 -11 57 -59 94
-177 137 -132 48 -166 66 -205 107 -105 110 -76 280 61 350 76 39 149 42 270
12z m-3318 -7 c98 -32 144 -93 144 -192 0 -145 -96 -213 -317 -223 l-123 -5 0
-138 c0 -152 9 -186 49 -195 53 -12 71 -19 69 -29 -2 -6 -78 -10 -201 -11
-204 0 -235 7 -149 34 35 12 43 19 52 50 6 21 10 165 10 337 0 332 -1 337 -63
350 -45 10 -50 15 -35 32 18 22 489 14 564 -10z m1135 0 c85 -38 131 -99 131
-173 0 -91 -66 -164 -174 -194 l-63 -17 45 -13 c68 -19 114 -70 140 -160 48
-163 68 -194 135 -202 19 -2 30 -9 30 -18 0 -20 -50 -24 -183 -15 l-104 7 -13
32 c-7 17 -23 83 -35 146 -12 63 -30 129 -41 146 -21 35 -81 64 -129 64 l-30
0 0 -155 c0 -152 1 -156 25 -180 15 -16 36 -25 54 -25 32 0 49 -14 30 -26 -7
-4 -98 -7 -203 -7 -159 -1 -191 1 -191 13 0 9 15 17 39 21 22 4 45 14 52 24
21 28 27 132 22 399 -3 219 -6 256 -21 279 -11 17 -27 27 -41 27 -35 0 -56 10
-56 26 0 15 137 22 395 19 114 -1 159 -6 186 -18z m3652 -86 c12 -139 -1 -150
-62 -54 -18 29 -48 62 -66 73 -41 26 -191 48 -208 31 -9 -9 -12 -90 -11 -285
2 -404 6 -422 102 -433 33 -4 52 -11 52 -19 0 -10 -47 -14 -217 -16 -120 -2
-226 -1 -236 1 -28 6 -14 25 24 32 54 9 77 26 90 67 16 53 9 636 -8 653 -9 9
-32 9 -93 1 -96 -12 -134 -36 -187 -119 -29 -47 -37 -53 -49 -42 -10 11 -11
30 -3 94 5 44 12 89 14 100 4 20 12 20 427 19 l423 0 8 -103z m1839 85 c40
-13 88 -30 106 -37 31 -13 34 -12 52 11 29 38 39 17 52 -108 15 -143 5 -159
-47 -78 -77 120 -145 172 -245 186 -112 16 -195 -22 -254 -117 -121 -194 -63
-510 109 -593 60 -29 137 -29 193 -1 61 31 72 53 72 146 0 108 -11 128 -78
139 -39 7 -52 14 -50 25 3 14 32 16 206 19 164 2 202 0 202 -11 0 -7 -21 -20
-47 -28 -56 -17 -61 -27 -62 -150 -1 -100 -3 -103 -103 -148 -331 -151 -671
-10 -712 294 -15 104 27 243 99 331 106 129 323 181 507 120z m-4198 3 c3 -3
14 -47 25 -98 17 -82 17 -93 3 -98 -9 -4 -22 4 -35 23 -39 55 -106 113 -144
123 -41 12 -181 15 -207 5 -14 -5 -16 -28 -16 -154 0 -103 4 -150 12 -152 6
-2 34 -1 61 2 53 7 83 32 119 99 10 18 21 30 26 27 4 -3 7 -76 6 -163 -2 -171
-12 -197 -43 -113 -10 28 -28 53 -48 66 -32 21 -119 41 -131 29 -10 -10 -14
-237 -5 -280 11 -50 54 -75 128 -75 123 1 234 50 281 125 51 80 66 55 39 -65
-8 -36 -17 -74 -20 -86 -5 -21 -6 -21 -352 -17 -192 2 -354 4 -360 3 -7 0 -13
7 -13 15 0 9 14 17 40 21 76 12 75 6 78 368 3 354 4 352 -58 365 -22 4 -36 13
-38 25 -4 17 12 18 321 14 179 -1 328 -6 331 -9z m3166 -3 c0 -8 -18 -18 -43
-25 -32 -8 -47 -18 -56 -38 -18 -40 -25 -296 -13 -491 10 -171 20 -202 63
-202 28 0 49 -11 49 -26 0 -11 -33 -14 -178 -13 -98 0 -183 -1 -188 -2 -49 -9
-44 25 6 40 22 6 45 22 52 34 10 16 13 100 13 332 0 350 -1 356 -69 369 -22 4
-36 13 -36 21 0 13 32 15 200 15 163 0 200 -3 200 -14z m2366 8 l51 -6 16 -88
c9 -47 17 -92 17 -98 0 -26 -29 -10 -63 34 -44 56 -89 91 -137 104 -43 12
-180 13 -199 1 -10 -7 -15 -45 -19 -155 l-5 -146 59 0 c73 0 96 15 130 81 14
28 30 49 37 46 7 -2 12 -9 11 -15 -1 -7 -2 -79 -2 -162 -1 -89 -6 -150 -12
-150 -5 0 -21 24 -35 54 -28 60 -58 80 -137 91 l-48 7 0 -155 c0 -179 5 -191
87 -203 136 -20 292 45 342 144 12 22 41 31 41 12 0 -5 -10 -54 -21 -109 l-21
-99 -352 5 c-193 2 -357 7 -365 9 -20 6 -7 15 47 33 43 15 48 19 59 61 15 59
17 587 2 627 -12 32 -26 43 -54 43 -28 0 -49 16 -41 29 8 12 518 16 612 5z
m-6953 -1034 c35 -17 67 -68 67 -109 0 -35 -46 -91 -74 -91 -28 0 -17 -14 24
-33 94 -44 92 -159 -3 -209 -37 -20 -60 -23 -204 -26 -115 -3 -163 -1 -163 7
0 6 8 11 19 11 10 0 23 6 28 13 12 14 24 370 14 407 -5 18 -15 26 -34 28 -15
2 -27 8 -27 14 0 16 317 5 353 -12z m3944 -7 c62 -17 65 -17 78 0 6 9 15 17
19 17 3 0 6 -38 6 -85 0 -82 -11 -109 -26 -62 -23 75 -103 124 -174 108 -23
-5 -55 -22 -71 -37 -79 -76 -79 -283 1 -359 24 -23 41 -29 87 -33 52 -3 63 0
106 28 26 18 47 36 47 41 0 5 5 9 10 9 25 0 6 -41 -31 -69 -62 -45 -135 -57
-218 -37 -82 20 -128 56 -163 126 -67 130 -1 295 138 350 62 24 108 25 191 3z
m-3422 -253 c45 -105 87 -187 99 -195 18 -14 11 -15 -79 -14 -55 1 -90 4 -77
6 31 6 36 22 17 66 l-15 37 -69 0 c-68 0 -69 0 -80 -31 -15 -44 -15 -46 17
-63 26 -15 25 -15 -42 -16 l-68 0 29 28 c17 17 57 91 103 195 41 92 77 167 80
167 4 0 42 -81 85 -180z m495 170 c70 -13 100 -44 100 -102 0 -43 -29 -88 -57
-88 -7 0 -13 -6 -13 -13 0 -17 109 -167 121 -167 5 0 9 -3 9 -7 0 -5 -27 -6
-60 -5 l-60 4 -50 69 c-28 39 -54 77 -57 85 -3 8 -13 14 -24 14 -16 0 -18 -7
-14 -71 3 -75 8 -84 40 -92 11 -3 -27 -5 -85 -5 -58 0 -96 3 -85 5 11 3 23 10
27 17 4 6 8 85 8 174 0 156 -1 164 -20 169 -11 3 -20 9 -20 13 0 12 177 12
240 0z m2149 -13 c27 -9 35 -9 38 1 3 6 8 12 11 12 9 0 6 -119 -2 -127 -3 -4
-6 3 -6 15 0 11 -15 37 -34 56 -42 45 -96 50 -121 12 -24 -36 -9 -55 84 -109
106 -62 131 -109 96 -178 -32 -61 -103 -83 -186 -58 -30 9 -42 9 -54 -1 -13
-11 -15 -3 -15 66 l1 79 22 -45 c23 -48 76 -90 111 -90 31 0 66 28 66 51 0 37
-20 58 -91 95 -108 57 -138 127 -83 193 41 49 81 56 163 28z m-1549 -2 c35
-18 50 -43 50 -81 0 -29 -34 -74 -57 -74 -7 0 -13 -4 -13 -10 0 -5 7 -10 16
-10 8 0 29 -13 45 -29 49 -49 34 -112 -34 -147 -23 -13 -58 -16 -146 -16 -155
1 -150 1 -121 15 l25 13 0 169 0 169 -25 7 c-14 4 33 7 103 8 96 1 135 -3 157
-14z m570 -40 c0 -63 -10 -70 -28 -21 -11 31 -19 36 -67 47 -78 17 -83 13 -84
-70 0 -39 4 -73 10 -76 17 -11 59 25 66 55 11 59 20 28 19 -70 0 -99 -8 -127
-19 -71 -7 35 -34 63 -56 59 -12 -2 -17 -17 -19 -58 -5 -92 0 -100 62 -100 44
0 60 5 85 25 16 14 33 35 36 45 14 44 21 16 11 -37 l-12 -58 -162 -3 c-98 -1
-162 1 -162 7 0 5 10 11 23 13 22 3 22 4 22 173 l0 169 -25 13 c-21 11 0 13
138 13 l162 0 0 -55z m475 45 c50 -11 85 -50 85 -95 0 -48 -8 -62 -46 -86
l-34 -20 42 -62 c23 -34 55 -74 71 -89 l29 -28 -63 0 -64 0 -60 90 c-33 49
-66 89 -72 90 -9 0 -13 -21 -13 -75 0 -71 1 -75 28 -89 25 -14 22 -15 -70 -16
-54 0 -98 2 -98 5 0 3 11 10 25 15 l25 10 0 164 0 165 -27 15 c-26 14 -21 15
87 15 63 0 133 -4 155 -9z m1752 -12 l-27 -10 2 -166 3 -167 59 -3 c67 -4 88
9 117 73 l19 40 0 -41 c0 -23 -3 -56 -6 -73 l-6 -31 -169 0 c-98 0 -169 4
-169 9 0 5 10 11 23 13 22 3 22 5 25 175 l2 171 -27 10 c-22 8 -5 10 77 10 82
0 99 -2 77 -10z m523 7 c0 -3 -11 -10 -24 -14 -28 -11 -36 -49 -35 -176 0
-117 14 -156 57 -169 50 -14 98 12 111 61 12 41 15 241 5 267 -3 9 -15 16 -25
16 -10 0 -19 5 -19 10 0 6 28 10 65 10 37 0 65 -4 65 -10 0 -5 -9 -10 -20 -10
-31 0 -40 -38 -40 -174 0 -111 -2 -126 -22 -151 -62 -79 -208 -70 -250 15 -15
28 -18 62 -18 173 0 129 -1 137 -19 137 -11 0 -23 5 -26 10 -4 6 30 10 94 10
56 0 101 -2 101 -5z m659 -23 c54 -40 53 -109 -1 -142 l-32 -19 30 -11 c31
-11 64 -55 64 -85 0 -35 -30 -73 -70 -89 -31 -12 -71 -16 -168 -15 -70 1 -117
4 -105 6 40 8 44 23 41 189 -3 154 -4 159 -25 169 -13 5 -23 12 -23 15 0 3 59
4 132 3 112 -1 135 -4 157 -21z m-6179 -118 l0 -44 -570 0 -570 0 0 45 0 45
558 2 c306 2 563 1 570 -1 7 -2 12 -20 12 -47z m7720 0 l0 -44 -620 0 -620 0
0 45 0 45 613 2 c336 2 615 2 620 0 4 -2 7 -23 7 -48z m-7885 -618 c50 -43
108 -95 130 -115 22 -20 71 -63 108 -95 66 -58 69 -59 103 -48 56 17 105 -11
119 -69 8 -34 -16 -59 -56 -59 -44 0 -65 15 -95 66 -33 57 -73 78 -146 78 -68
1 -101 -20 -137 -83 -30 -55 -78 -78 -119 -59 -38 18 -40 57 -7 97 28 33 68
41 106 21 16 -9 27 -3 68 35 l49 46 -75 72 c-93 88 -173 183 -173 204 0 19 -1
19 125 -91z m431 46 c-14 -20 -67 -79 -119 -130 -93 -93 -93 -93 -112 -72 -16
18 -17 22 -4 34 8 8 68 62 134 120 117 105 152 121 101 48z m6476 -14 c-22
-34 -212 -228 -223 -228 -4 0 -15 7 -23 15 -14 14 -7 24 77 98 50 45 112 101
137 124 49 45 64 41 32 -9z m-449 -55 c62 -54 130 -114 152 -134 126 -115 160
-140 180 -135 11 4 29 8 40 11 34 9 83 -29 91 -70 8 -46 -8 -65 -55 -65 -41 0
-61 17 -100 83 -13 20 -23 37 -24 37 -1 0 -26 9 -56 18 -51 17 -57 17 -105 2
-37 -12 -57 -26 -73 -51 -52 -81 -62 -89 -109 -89 -37 0 -46 4 -55 24 -9 18
-7 30 5 54 22 43 50 55 105 48 43 -5 49 -3 91 34 l45 39 -111 113 c-106 107
-144 153 -144 170 0 16 15 6 123 -89z m-5645 21 c18 -5 22 -13 21 -48 -1 -38
-1 -39 -10 -15 -13 35 -58 53 -112 46 -142 -19 -119 -248 26 -264 39 -5 49 -2
71 20 l26 26 0 -22 c0 -37 -19 -47 -90 -47 -101 0 -161 41 -180 124 -15 68 22
145 84 172 32 14 124 18 164 8z m1016 -122 c60 -155 70 -172 100 -172 21 0 24
6 30 53 3 28 6 81 6 117 l0 65 90 -90 90 -90 0 76 c0 45 -5 80 -12 87 -9 9 -3
12 27 12 22 0 35 -4 29 -8 -7 -4 -14 -53 -17 -121 -4 -62 -8 -115 -10 -117 -2
-2 -41 34 -86 81 -46 47 -85 85 -87 85 -2 0 -4 -33 -4 -74 0 -50 4 -76 13 -79
6 -3 -27 -6 -74 -6 l-85 -1 -13 50 -13 50 -47 0 c-46 0 -49 -1 -66 -41 -16
-35 -17 -42 -4 -50 9 -6 -2 -9 -36 -8 -38 0 -45 2 -29 9 16 6 37 47 80 154 31
80 60 146 63 146 3 0 28 -57 55 -128z m973 78 c2 -30 1 -32 -7 -13 -11 26 -56
41 -79 26 -32 -20 -24 -49 24 -90 80 -66 94 -116 46 -164 -25 -24 -37 -29 -81
-29 -55 0 -64 8 -58 57 l3 28 15 -30 c11 -22 23 -31 45 -33 36 -3 50 6 60 36
6 20 -1 32 -43 70 -79 74 -91 114 -47 158 21 21 33 25 73 22 46 -3 47 -4 49
-38z m1441 34 c17 -5 22 -14 22 -38 l0 -31 -18 23 c-26 33 -85 28 -90 -8 -3
-19 8 -35 54 -76 54 -47 59 -55 59 -94 0 -56 -37 -90 -98 -90 -57 0 -69 10
-65 51 l4 34 12 -27 c22 -53 102 -45 102 10 0 20 -14 41 -55 79 -43 40 -55 59
-55 82 0 45 10 62 44 77 35 15 51 16 84 8z m1222 -19 c64 -33 52 -113 -29
-196 -32 -33 -54 -62 -49 -65 15 -9 92 7 111 24 16 14 17 13 17 -9 0 -41 -17
-49 -112 -49 -48 0 -88 3 -88 7 0 3 27 34 59 68 65 68 91 127 75 172 -5 14
-16 30 -25 36 -23 14 -67 1 -74 -23 -8 -24 -25 -17 -25 11 0 37 87 52 140 24z
m238 -1 c35 -24 52 -68 52 -133 0 -72 -22 -133 -54 -150 -12 -7 -40 -11 -61
-9 -70 6 -106 90 -84 196 19 94 87 139 147 96z m495 -11 c24 -23 21 -59 -7
-84 l-25 -21 30 -25 c81 -69 -9 -181 -127 -159 -32 6 -34 10 -34 44 l1 37 14
-27 c19 -34 48 -43 86 -28 56 24 51 98 -9 129 -20 11 -31 20 -23 21 22 0 61
41 61 63 0 26 -28 57 -52 57 -10 0 -27 -9 -38 -20 -26 -26 -32 -25 -28 2 5 39
111 46 151 11z m-273 -127 c0 -142 0 -145 23 -149 12 -2 -12 -4 -53 -5 -45 0
-65 3 -50 7 25 7 25 9 28 124 1 64 0 117 -3 117 -4 0 -15 -5 -27 -11 -11 -6
-22 -8 -25 -6 -6 7 78 66 95 67 9 0 12 -35 12 -144z m-4576 87 c4 -9 3 -19 0
-22 -4 -3 -9 0 -11 7 -3 6 -20 12 -39 12 l-34 0 0 -104 c0 -91 2 -105 18 -109
9 -3 -8 -5 -38 -5 -30 0 -47 2 -37 5 15 4 17 18 17 109 l0 104 -39 0 c-22 0
-42 -5 -44 -12 -3 -7 -6 -4 -6 8 -1 11 1 23 3 25 2 2 49 3 104 1 80 -3 102 -6
106 -19z m144 21 c13 -4 22 -14 22 -25 0 -23 -9 -24 -25 -3 -16 22 -65 11 -65
-14 0 -10 20 -38 45 -62 34 -34 45 -52 45 -76 0 -48 -45 -79 -100 -67 -26 5
-30 10 -29 37 0 28 1 29 9 9 17 -42 90 -38 90 5 0 8 -18 31 -39 52 -22 20 -44
47 -49 60 -22 57 30 101 96 84z m-553 -100 c0 -89 2 -97 24 -115 31 -25 47
-24 76 6 23 22 25 32 25 109 0 58 -4 86 -12 89 -7 3 5 6 27 6 22 0 35 -3 29
-7 -6 -4 -13 -46 -16 -94 -4 -75 -8 -92 -28 -113 -30 -32 -102 -35 -140 -6
-22 18 -25 28 -30 120 l-5 101 25 0 c25 0 25 0 25 -96z m1509 73 c52 -35 63
-125 21 -176 -34 -40 -82 -54 -153 -46 l-57 6 3 111 c3 84 0 113 -10 119 -7 5
28 7 78 6 67 -2 98 -7 118 -20z m488 -35 l-5 -53 64 3 64 3 3 43 c2 33 0 42
-12 42 -9 0 -16 4 -16 9 0 5 18 8 40 7 32 0 39 -4 34 -16 -11 -23 -17 -146
-10 -185 6 -30 11 -35 35 -35 26 0 30 7 75 121 29 72 52 117 58 111 5 -5 26
-55 48 -113 22 -57 48 -110 57 -116 15 -11 12 -13 -19 -13 -32 0 -36 3 -47 40
-11 38 -14 40 -52 40 -34 0 -41 -4 -50 -27 -5 -14 -8 -32 -5 -40 4 -10 -13
-13 -82 -13 -54 0 -82 4 -73 9 7 5 16 32 19 60 l5 51 -67 0 -66 0 0 -50 c0
-36 5 -52 18 -59 13 -8 4 -10 -38 -10 -42 0 -51 2 -37 10 14 8 17 26 17 114 0
63 -4 105 -10 105 -5 0 -10 4 -10 8 0 4 15 8 33 8 l33 0 -4 -54z m493 37 c-6
-19 44 -161 54 -154 13 8 63 144 56 155 -4 6 6 10 25 10 l31 0 -20 -27 c-10
-16 -36 -70 -57 -120 -22 -51 -43 -91 -48 -90 -5 2 -30 54 -54 115 -26 66 -50
112 -58 112 -8 0 -14 3 -14 8 0 4 20 7 45 7 37 0 44 -3 40 -16z m508 12 c4 -1
7 -13 7 -28 l0 -27 -16 22 c-18 27 -51 26 -68 -1 -9 -15 -3 -25 37 -62 38 -36
47 -51 47 -79 0 -54 -47 -86 -105 -72 -20 5 -25 12 -24 39 0 30 1 31 11 9 21
-43 88 -37 88 8 0 9 -18 33 -39 53 -44 40 -56 67 -47 102 6 25 47 45 81 40 11
-2 23 -4 28 -4z m-173 -8 c0 -14 -20 -39 -20 -25 0 7 -14 12 -35 12 -34 0 -35
-1 -35 -40 l0 -40 40 0 c34 0 40 -3 40 -21 0 -18 -3 -19 -14 -9 -8 6 -25 10
-38 8 -20 -3 -23 -9 -23 -48 0 -44 1 -45 34 -48 20 -2 37 2 42 10 6 9 9 7 9
-9 0 -22 -4 -23 -77 -22 -43 0 -72 3 -65 6 8 3 12 36 12 113 0 77 -4 110 -12
113 -7 3 22 6 65 6 42 1 77 -2 77 -6z m643 0 c-9 -3 -13 -36 -13 -113 0 -93 3
-110 18 -119 19 -12 8 -14 -34 -5 l-29 5 3 105 c2 71 -1 110 -9 120 -10 12 -5
14 32 13 24 0 38 -3 32 -6z m263 -163 c2 0 4 34 4 75 0 60 -3 76 -17 84 -14 8
-8 10 27 11 25 0 40 -4 34 -8 -7 -4 -15 -57 -19 -126 l-7 -118 -89 88 -89 89
0 -76 c0 -41 5 -80 11 -86 8 -8 1 -11 -25 -11 -29 0 -34 3 -26 13 6 7 13 63
17 125 l6 113 85 -87 c47 -47 86 -86 88 -86z m303 161 c8 -5 11 -16 7 -29 -7
-21 -7 -21 -27 -1 -19 19 -71 25 -104 13 -21 -8 -45 -56 -45 -89 0 -34 24 -80
52 -99 34 -24 95 -21 108 5 16 28 23 18 11 -15 -10 -23 -16 -26 -62 -26 -97 0
-149 46 -149 130 0 52 13 76 53 100 34 21 130 28 156 11z m200 -16 c2 -13 -1
-16 -14 -11 -55 21 -62 19 -68 -20 -8 -48 -2 -57 39 -52 31 4 34 2 34 -22 0
-17 -3 -21 -9 -12 -5 8 -21 12 -37 10 -25 -3 -29 -8 -32 -36 -2 -18 2 -40 9
-48 17 -20 66 -18 72 4 3 10 5 6 6 -10 l1 -28 -77 0 c-53 0 -73 3 -63 10 23
14 28 201 6 222 -14 14 -8 16 57 13 60 -2 73 -6 76 -20z m-5139 -87 c-114 -31
-117 -31 -107 -3 5 12 22 15 74 14 62 -1 65 -2 33 -11z m365 2 c-3 -5 -18 -10
-33 -10 -15 0 -43 -4 -61 -10 -39 -11 -46 -8 -38 15 5 11 22 15 72 15 42 0 64
-4 60 -10z m6080 -35 c-69 -18 -95 -18 -95 0 0 12 14 15 73 14 l72 -1 -50 -13z
m384 11 c-3 -3 -35 -11 -72 -19 -63 -13 -67 -13 -67 5 0 16 9 18 72 18 39 0
69 -2 67 -4z"/>
<path d="M3970 6987 c0 -24 3 -25 80 -29 93 -5 124 -22 155 -84 19 -38 20 -62
23 -743 2 -474 -1 -722 -8 -756 -18 -85 -70 -123 -181 -132 -61 -5 -70 -8 -67
-25 3 -18 19 -19 388 -19 373 0 385 0 388 19 3 17 -5 20 -71 25 -107 8 -152
35 -176 106 -17 51 -16 691 2 691 6 0 53 -7 102 -15 259 -43 471 3 604 130
122 116 171 304 126 479 -43 165 -202 305 -400 352 -58 14 -147 17 -517 21
l-448 5 0 -25z m812 -101 c26 -8 57 -20 70 -27 134 -70 216 -266 190 -449 -23
-158 -129 -277 -277 -310 -46 -10 -180 -1 -252 17 l-23 5 0 378 0 378 38 10
c56 15 201 14 254 -2z"/>
<path d="M2235 7016 c-37 -30 -30 -40 16 -25 43 15 41 13 33 33 -8 21 -13 20
-49 -8z"/>
<path d="M2105 6760 c-37 -73 -33 -88 12 -51 45 37 59 40 38 8 -17 -27 -46
-117 -37 -117 3 0 23 17 44 37 l38 37 0 -34 c0 -44 10 -80 21 -80 5 0 15 14
24 30 19 36 35 39 35 5 0 -27 40 -125 50 -125 4 0 13 18 20 40 7 22 16 40 20
40 4 0 13 -14 20 -31 15 -35 102 -129 120 -129 7 0 -13 27 -44 61 -31 33 -63
76 -71 95 -8 19 -18 34 -23 34 -4 0 -17 -17 -27 -37 l-18 -38 -13 30 c-7 17
-16 49 -20 73 -3 23 -9 42 -12 42 -3 0 -19 -12 -35 -27 l-30 -28 6 58 c7 67
-2 72 -51 25 l-34 -33 13 30 c7 17 22 43 33 59 l20 29 -30 -7 c-16 -4 -37 -15
-47 -23 -19 -18 -35 -11 -20 9 13 18 34 68 28 68 -3 0 -16 -22 -30 -50z"/>
<path d="M2530 6124 c-36 -13 -67 -24 -69 -24 -3 0 3 -6 13 -13 16 -12 16 -15
-4 -60 -29 -64 -20 -81 13 -26 14 24 47 66 72 93 39 43 51 59 43 55 -2 -1 -32
-12 -68 -25z"/>
<path d="M7004 7016 c-11 -23 -10 -24 30 -28 54 -6 57 -1 21 28 -37 29 -37 29
-51 0z"/>
<path d="M7174 6763 c15 -29 24 -53 22 -53 -3 0 -22 11 -42 25 -20 14 -41 25
-45 25 -12 0 -11 -14 0 -25 6 -6 17 -28 27 -50 l16 -40 -28 25 c-16 14 -30 28
-32 33 -2 4 -9 7 -16 7 -9 0 -11 -16 -8 -57 l4 -58 -31 29 c-22 21 -31 25 -34
15 -3 -8 -10 -36 -16 -64 -17 -68 -27 -75 -47 -31 -10 20 -21 36 -24 36 -4 0
-15 -18 -25 -41 -10 -22 -43 -65 -72 -95 -29 -30 -47 -54 -39 -54 19 0 115
106 122 136 9 35 21 29 37 -18 7 -24 18 -42 23 -41 5 1 20 36 35 78 l25 77 17
-26 c9 -14 17 -30 17 -36 0 -5 4 -10 10 -10 9 0 17 34 22 95 l3 30 33 -34 c17
-19 32 -38 32 -42 0 -5 5 -9 10 -9 13 0 4 40 -21 98 -21 49 -13 53 31 16 17
-15 33 -24 36 -21 6 6 -41 106 -58 122 -5 6 2 -14 16 -42z"/>
<path d="M6690 6143 c0 -3 21 -27 46 -53 26 -27 60 -68 75 -92 34 -51 40 -28
8 33 -19 38 -19 42 -3 53 14 11 7 16 -55 38 -39 14 -71 23 -71 21z"/>
<path d="M837 4173 c-12 -11 -8 -331 4 -338 20 -13 118 6 151 28 52 36 78 91
78 168 0 73 -17 107 -70 134 -29 15 -151 21 -163 8z"/>
<path d="M1998 4183 l-28 -4 0 -166 0 -166 53 7 c115 15 167 68 167 170 0 70
-22 116 -67 140 -34 17 -87 25 -125 19z"/>
<path d="M1960 3075 l0 -98 38 6 c47 8 82 46 82 92 0 46 -35 84 -82 92 l-38 6
0 -98z"/>
<path d="M1962 2849 l3 -104 31 -3 c67 -7 118 74 90 141 -17 43 -37 58 -86 64
l-41 6 3 -104z"/>
<path d="M2507 2912 c-15 -33 -27 -62 -27 -66 0 -3 23 -6 50 -6 59 0 60 5 27
80 l-23 52 -27 -60z"/>
<path d="M3050 2990 l0 -80 35 0 c54 0 79 31 72 88 -6 53 -26 72 -74 72 l-33
0 0 -80z"/>
<path d="M3610 2996 c0 -75 0 -76 25 -76 33 0 75 42 75 73 0 34 -29 66 -67 73
l-33 7 0 -77z"/>
<path d="M3612 2817 c3 -81 3 -82 30 -85 37 -4 78 36 78 77 0 38 -36 77 -78
85 l-33 6 3 -83z"/>
<path d="M4677 3063 c-4 -3 -7 -42 -7 -85 l0 -78 33 0 c64 0 99 54 76 119 -8
23 -20 33 -47 41 -44 12 -47 12 -55 3z"/>
<path d="M7580 2975 c0 -81 6 -88 53 -64 30 16 37 28 37 71 0 41 -27 68 -67
68 -22 0 -23 -4 -23 -75z"/>
<path d="M7582 2798 c3 -82 3 -83 30 -86 31 -4 64 25 74 63 13 52 -31 105 -87
105 -18 0 -20 -6 -17 -82z"/>
<path d="M1540 2126 c0 -9 7 -16 16 -16 17 0 14 22 -4 28 -7 2 -12 -3 -12 -12z"/>
<path d="M1319 2028 c-33 -28 -42 -47 -29 -63 29 -35 95 -1 88 47 -4 27 -35
35 -59 16z"/>
<path d="M1731 2022 c-18 -33 30 -79 69 -67 26 8 25 35 0 63 -25 27 -56 28
-69 4z"/>
<path d="M8002 2098 c6 -18 28 -21 28 -4 0 9 -7 16 -16 16 -9 0 -14 -5 -12
-12z"/>
<path d="M7771 1986 c-41 -44 -8 -84 45 -55 29 15 40 45 24 64 -18 22 -43 18
-69 -9z"/>
<path d="M8197 2004 c-11 -12 -8 -51 6 -62 24 -20 63 -24 77 -7 11 13 10 20
-7 43 -19 26 -61 40 -76 26z"/>
<path d="M3128 2186 c-19 -50 -16 -56 25 -56 26 0 29 3 23 25 -8 31 -25 75
-29 75 -1 0 -10 -20 -19 -44z"/>
<path d="M7006 2258 c-34 -55 -27 -201 11 -240 45 -45 78 21 72 145 -6 103
-47 150 -83 95z"/>
<path d="M3698 2167 c-2 -35 -2 -83 0 -106 4 -40 5 -41 42 -41 52 0 68 8 85
41 38 73 -2 155 -81 166 l-42 5 -4 -65z"/>
<path d="M4621 2139 c-14 -41 -15 -39 18 -39 29 0 29 1 18 35 -13 43 -22 44
-36 4z"/>
</g>
</svg>
